<svg xmlns="http://www.w3.org/2000/svg" width="24" height="24" viewBox="0 0 60 30">
  <!-- Simplified Union Jack (United Kingdom) -->
  <rect width="60" height="30" fill="#012169"/>
  <!-- white diagonals -->
  <polygon fill="#fff" points="0,0 7,0 60,23 60,30 53,30 0,7"/>
  <polygon fill="#fff" points="60,0 53,0 0,23 0,30 7,30 60,7"/>
  <!-- red diagonals -->
  <polygon fill="#C8102E" points="0,0 4,0 60,22 60,26 56,26 0,4"/>
  <polygon fill="#C8102E" points="60,0 56,0 0,22 0,26 4,26 60,4"/>
  <!-- central white cross -->
  <rect x="24" width="12" height="30" fill="#fff"/>
  <rect y="9" width="60" height="12" fill="#fff"/>
  <!-- central red cross -->
  <rect x="26" width="8" height="30" fill="#C8102E"/>
  <rect y="11" width="60" height="8" fill="#C8102E"/>
</svg>